<?xml version="1.0" encoding="UTF-8"?>
<svg id="Layer_2" data-name="Layer 2" xmlns="http://www.w3.org/2000/svg" viewBox="0 0 89.97 35.18">
  <defs>
    <style>
      .cls-1 {
        fill: #f1ede4;
      }
    </style>
  </defs>
  <g id="Layer_1-2" data-name="Layer 1">
    <path class="cls-1" d="M49.63,0c-1.6,0-2.92,1.32-2.92,2.92s1.32,2.92,2.92,2.92,2.92-1.32,2.92-2.92S51.24,0,49.63,0M85.84,34.49h4.13V0h-4.13v34.49ZM47.57,23.42v11.07h4.13V10.68h-4.13v12.73ZM75.7,19.97c-.69-3.73-3.5-6.2-7-6.2s-6.37,2.64-7,6.2h14,0ZM77.71,14.47c1.49,2.12,2.35,5.79,2.24,8.95h-18.53c.06,4.93,3.44,8.09,7.57,8.09,1.95,0,3.5-.57,4.88-1.72,1.09-.92,1.95-2.12,2.47-3.27l3.44,1.89c-.69,1.32-1.72,2.76-2.92,3.84-2.18,1.95-4.88,2.92-7.91,2.92-5.58,0-11.44-3.43-11.74-11.76,0-.23-.01-.46-.01-.69,0-7.11,4.36-12.62,11.53-12.62,4.64,0,7.57,2.29,9.01,4.36h0ZM21.2,23.42c.02-.25.04-.51.04-.77,0-4.83-3.91-8.74-8.74-8.74s-8.74,3.91-8.74,8.74c0,.26.01.52.04.77.39,4.47,4.14,7.97,8.71,7.97s8.32-3.5,8.71-7.97M24.99,22.64c0,.26-.01.52-.03.77-.4,6.54-5.83,11.72-12.47,11.72S.43,29.96.03,23.42c-.01-.26-.03-.51-.03-.77,0-6.9,5.59-12.5,12.49-12.5s12.49,5.59,12.49,12.5M39.53,10.11c1.26,0,2.64.46,3.67.98l-1.95,3.73c-.92-.63-1.78-.8-2.41-.8-1.66,0-2.7.69-3.33,1.49-.69.92-1.38,2.52-1.38,6.42v12.56h-4.13V10.68h4.13v2.58c.4-.63,2.18-3.16,5.39-3.16h0Z"/>
  </g>
</svg>